<?xml version="1.0" encoding="UTF-8" standalone="no"?>
<svg
   xmlns:dc="http://purl.org/dc/elements/1.1/"
   xmlns:cc="http://creativecommons.org/ns#"
   xmlns:rdf="http://www.w3.org/1999/02/22-rdf-syntax-ns#"
   xmlns:svg="http://www.w3.org/2000/svg"
   xmlns="http://www.w3.org/2000/svg"
   xmlns:xlink="http://www.w3.org/1999/xlink"
   xmlns:sodipodi="http://sodipodi.sourceforge.net/DTD/sodipodi-0.dtd"
   xmlns:inkscape="http://www.inkscape.org/namespaces/inkscape"
   inkscape:version="1.0 (4035a4f, 2020-05-01)"
   sodipodi:docname="ui_ux_design.svg"
   version="1.1"
   viewBox="0 0 1164.07 555.93"
   height="555.93"
   width="1164.07"
   data-name="Layer 1"
   id="1c51936f-ad83-4493-a1e8-5a7ca1846cda">
  <metadata
     id="metadata1669">
    <rdf:RDF>
      <cc:Work
         rdf:about="">
        <dc:format>image/svg+xml</dc:format>
        <dc:type
           rdf:resource="http://purl.org/dc/dcmitype/StillImage" />
      </cc:Work>
    </rdf:RDF>
  </metadata>
  <sodipodi:namedview
     inkscape:current-layer="1c51936f-ad83-4493-a1e8-5a7ca1846cda"
     inkscape:window-maximized="1"
     inkscape:window-y="28"
     inkscape:window-x="0"
     inkscape:cy="277.965"
     inkscape:cx="483.83305"
     inkscape:zoom="0.64429118"
     showgrid="false"
     id="namedview1667"
     inkscape:window-height="650"
     inkscape:window-width="1366"
     inkscape:pageshadow="2"
     inkscape:pageopacity="0"
     guidetolerance="10"
     gridtolerance="10"
     objecttolerance="10"
     borderopacity="1"
     bordercolor="#666666"
     pagecolor="#ffffff" />
  <defs
     id="defs1270">
    <linearGradient
       gradientUnits="userSpaceOnUse"
       y2="679.56"
       x2="439.4"
       y1="679.56"
       x1="439.31"
       id="ac59aa7e-40f5-4d5f-b82f-fdd6bf7d03ee">
      <stop
         id="stop1261"
         stop-opacity="0.25"
         stop-color="gray"
         offset="0" />
      <stop
         id="stop1263"
         stop-opacity="0.12"
         stop-color="gray"
         offset="0.54" />
      <stop
         id="stop1265"
         stop-opacity="0.1"
         stop-color="gray"
         offset="1" />
    </linearGradient>
    <linearGradient
       xlink:href="#ac59aa7e-40f5-4d5f-b82f-fdd6bf7d03ee"
       y2="533.62"
       x2="458.12"
       y1="533.62"
       x1="186.82"
       id="72a3db62-0825-44ad-a640-19754e14ba99" />
    <linearGradient
       xlink:href="#ac59aa7e-40f5-4d5f-b82f-fdd6bf7d03ee"
       gradientTransform="translate(1997.33)"
       y2="383.52"
       x2="-1193.63"
       y1="706.12"
       x1="-1193.63"
       id="060ac890-45f2-497a-b51d-740a183b02f3" />
  </defs>
  <title
     id="title1272">design tools</title>
  <path
     id="path1274"
     opacity="0.1"
     fill="#55198b"
     transform="translate(-17.96 -172.03)"
     d="M1173.17,633.09a83.63,83.63,0,0,1-23,27.6c-1.36,1.09-2.75,2.14-4.16,3.17q-2.85,2-5.84,3.93c-15.49,9.83-33.63,16.55-51.34,21.45q-7.24,2-14.53,3.76-6.15,1.49-12.31,2.78c-1.56.34-3.12.66-4.68,1s-3.35.67-5,1l-2.37.45c-45.82,8.45-92.24,10.06-139,7.94l-2.22-.11-3.55-.18q-14.24-.74-28.51-1.89l-3.6-.29-1.59-.13q-8-.67-16-1.47-10.54-1-21.11-2.21l-.91-.1-.74-.09h0c-25.15-2.83-50.36-6.23-75.6-9.72l-3.57-.5-6.41-.89-5.4-.75h0l-1.6-.22q-12.78-1.79-25.56-3.54l-1.38-.19c-16-2.19-32.09-4.3-48.13-6.22l-2.09-.25h0q-9.85-1.17-19.69-2.23l-5-.53-6.65-.67c-18.43-1.83-36.85-3.29-55.23-4.2q-13.26-.66-26.58-1-11-.25-22-.29-14.92-.07-29.9.17h0l-2.26,0c-14.07.23-28.17.63-42.28,1.11l-2.54.08-.84,0c-30,1.06-60,2.47-89.92,3.48l-7.31.24-1.06,0q-15.6.5-31.17.77l-2.75,0h-.09l-3.34,0-4.64.06q-7.23.07-14.43.08H289.4c-17.62-.05-35.17-.44-52.61-1.35l-1.94-.11c-33.89-1.83-67.4-5.61-100.31-12.48q-5.11-1.07-10.2-2.24A468.41,468.41,0,0,1,57.54,638C47.3,634,37,629.38,29.21,621.56c-19.76-20-12.34-59.17,13.37-70.56,20.11-8.91,43.67-1.66,65.3-5.68a33.38,33.38,0,0,0,3.93-1,54.61,54.61,0,0,0,8-3.3c.88-.44,1.76-.91,2.65-1.4,2-1.09,4-2.3,5.92-3.62a90.88,90.88,0,0,0,9-6.83q1.9-1.62,3.7-3.36A70.77,70.77,0,0,0,152,512.74a46.19,46.19,0,0,0,3-5.64c.47-1,.89-2.08,1.24-3.12a29.06,29.06,0,0,0,1.19-4.62c1.26-7.42-.78-14.66-7.88-20.78a20.94,20.94,0,0,0-2-1.51,30.56,30.56,0,0,0-4.34-2.51c-.61-.29-1.24-.57-1.88-.84-9.14-3.85-20.93-5.33-30.87-8h0a54.5,54.5,0,0,1-8.84-3.07c-1.81-.84-3.61-1.72-5.38-2.64h0l-.47-.26h0a120.39,120.39,0,0,1-39-32,104.24,104.24,0,0,1-7.26-10.54c-.67-1.1-1.32-2.23-1.94-3.36C30,382.15,28.19,341.53,46.47,310.36a97.93,97.93,0,0,1,7.4-10.86q1.32-1.71,2.73-3.36C74,275.61,99,261.7,124.24,251.4c33.88-13.82,69.35-22.55,105.5-28.3q11-1.75,22-3.14c30.7-3.92,61.76-6,92.6-7.58q43.27-2.19,86.92-2.83,14.79-.2,29.61-.17,33.39,0,66.78,1.29,11,.42,22,1,28.21,1.46,56.31,4,13.5,1.22,26.94,2.69c68.24,7.46,135.49,20.11,200.42,39.78q11.05,3.34,22,7a849.57,849.57,0,0,1,80.39,31.07q3.72,1.67,7.42,3.36,24.59,11.28,48.48,24.31a539.15,539.15,0,0,1,60.6,38q11.32,8.3,22,17.32a316.44,316.44,0,0,1,35.11,34.64q1.44,1.67,2.85,3.36,7.32,8.79,13.9,18.21c21.4,30.76,35.76,65.94,46.36,101.88C1181.78,568.65,1188,603.86,1173.17,633.09Z" />
  <path
     id="path1276"
     opacity="0.1"
     fill="#55198b"
     transform="translate(-17.96 -172.03)"
     d="M1159.72,525.81h-85.43V417.14h38q-1.41-1.69-2.85-3.36h-35.11V379.14q-10.66-9-22-17.32v52H855.38V299.5h87.81q-3.71-1.69-7.42-3.36H855.38V265.07q-11-3.63-22-7v38H552.3l-.67-.64,81.31-77.18q-13.44-1.48-26.94-2.69l-56.31,53.44v-57.4q-11-.58-22-1v62.09l-66.78-63.38q-14.81,0-29.61.17l90.56,85.95-.67.64H251.76V220q-11,1.39-22,3.14v73H56.6q-1.41,1.65-2.73,3.36H229.74V413.78H47.53c.62,1.13,1.27,2.26,1.94,3.36H229.74V525.81H141.07q-1.8,1.74-3.7,3.36h92.37v111.2q11,1.57,22,3.28V529.17H527.67V668.5q11,0,22,.29V529.17H833.36V699.74l.91.1q10.56,1.18,21.11,2.21V529.17h196.89V697.73c1.68-.31,3.36-.64,5-1s3.12-.63,4.68-1q6.16-1.31,12.31-2.78V529.17h86.12C1160.16,528.05,1159.94,526.93,1159.72,525.81Zm-632.05,0H251.76V417.14H527.67Zm0-112H251.76V299.5h272l3.88,3.06Zm305.69,112H549.69V417.14H833.36Zm0-112H549.69V299.5H833.36Zm218.91,112H855.38V417.14h196.89Z" />
  <path
     id="path1278"
     fill="#eaecf0"
     transform="translate(-17.96 -172.03)"
     d="M315.15,679.24c0,.11-.08.22-.11.33h0c0-.11.07-.22.12-.33Z" />
  <path
     id="path1280"
     fill="#eaecf0"
     transform="translate(-17.96 -172.03)"
     d="M320.37,674.45l-2.75,0h-.09l-3.34,0-4.64.06-.51-5.27-.47-5-2.18-22.81-.07-.7,0-.31-.61-6.42,9.34-3.5,1.14,9.31.08.69v.08l2.31,18.9.71,5.8.41,3.37.35,2.89v.1Z" />
  <polygon
     id="polygon1282"
     fill="#3a3768"
     points="335.94 507.2 336.05 507.53 335.31 507.53 335.2 507.2 335.94 507.2" />
  <path
     id="path1284"
     fill="#3a3768"
     transform="translate(-17.96 -172.03)"
     d="M439.4,679.55l0,0h0Z" />
  <path
     id="path1286"
     fill="#3a3768"
     transform="translate(-17.96 -172.03)"
     d="M498.74,547.48c0,.2,0,.31,0,.31v.12s-8.72,23.83-11.56,44.17q-.29,2-.48,4c-.14,1.41-.25,2.79-.31,4.13-.08,1.57-.1,3.09-.06,4.54,0,.33,0,.67,0,1,0,.67.07,1.36.11,2.07s.1,1.42.16,2.16.12,1.39.19,2.1c2.15,22,10.32,54.21,10.32,54.21s.27.87.62,2.35l-2.26,0c-14.07.23-28.17.63-42.28,1.11l-2.54.08-.84,0c-30,1.06-60,2.47-89.92,3.48l-7.31.24-1.06,0q-15.6.5-31.17.77l-2.75,0a16.85,16.85,0,0,1,2.42-2.73,17.6,17.6,0,0,1,2.45-1.9,55.14,55.14,0,0,1,15.35-6.59,12.24,12.24,0,0,1,3.51-.43l7,.14,1.08,0,10.74.21,92.12,1.83h.23l.65-.13a17.25,17.25,0,0,0,3.11-1.1,10.92,10.92,0,0,0,6.56-8.48c0-.31.08-.64.1-1a11.8,11.8,0,0,0,0-1.46c0-.34,0-.7-.08-1.07s-.1-.74-.17-1.12c-2.22-12.41-6-50.61-6-50.61V600s0-1.63.09-4.37c0-.21,0-.44,0-.67l0-.59c0-.61.07-1.27.11-2,0-.43.06-.87.09-1.33.05-.67.11-1.36.17-2.08a.59.59,0,0,1,0-.13q.06-.68.12-1.38s0-.1,0-.15c1.49-14.75,6.18-38.1,21-46.75,6.95-4.07,11.55-4.89,14.58-4.09,4.42,1.16,5.53,5.76,5.77,8.75,0,.2,0,.39,0,.58A14.61,14.61,0,0,1,498.74,547.48Z" />
  <path
     id="path1288"
     opacity="0.1"
     transform="translate(-17.96 -172.03)"
     d="M315.15,679.24c0,.11-.08.22-.11.33h0c0-.11.07-.22.12-.33Z" />
  <polygon
     id="polygon1290"
     opacity="0.1"
     points="335.94 507.2 336.05 507.53 335.31 507.53 335.2 507.2 335.94 507.2" />
  <path
     id="path1292"
     opacity="0.1"
     transform="translate(-17.96 -172.03)"
     d="M439.4,679.55l0,0h0Z" />
  <path
     id="path1294"
     opacity="0.1"
     transform="translate(-17.96 -172.03)"
     d="M498.74,547.48c0,.2,0,.31,0,.31s-7.19,19.65-10.62,38.49h0q-.36,2-.66,3.87c-.1.64-.19,1.28-.28,1.92q-.29,2-.48,4c-.14,1.41-.25,2.79-.31,4.13-.08,1.57-.1,3.09-.06,4.54,0,.33,0,.67,0,1,0,.67.07,1.36.11,2.07s.1,1.43.16,2.16.12,1.39.19,2.1.14,1.39.22,2.09c.32,2.83.72,5.8,1.18,8.82,3.13,20.37,8.92,43.19,8.92,43.19s.29.92.64,2.46h0l-2.26,0c-14.07.23-28.17.63-42.28,1.11l-2.54.08-.84,0c-30,1.06-60,2.47-89.92,3.48l-7.31.24-1.06,0q-15.6.5-31.17.77l-2.75,0h-.09a17.18,17.18,0,0,1,2.5-2.83,16.56,16.56,0,0,1,2.46-1.92,55.74,55.74,0,0,1,15.35-6.59,12.59,12.59,0,0,1,3.51-.42l7,.14,1.08,0,10.77.21,92.19,1.82h.16s.27,0,.72-.15a16.16,16.16,0,0,0,3.13-1.13,10.91,10.91,0,0,0,6.47-8.31c0-.31.08-.64.1-1a11.8,11.8,0,0,0,0-1.46c0-.34,0-.7-.08-1.07s-.1-.81-.17-1.23c-2.22-12.41-6-50.61-6-50.61s0-1.63.09-4.37c0-.21,0-.44,0-.67l0-.59c0-.61.07-1.27.11-2,0-.43.06-.87.09-1.33.05-.67.11-1.36.17-2.08a.59.59,0,0,1,0-.13q.06-.68.12-1.38s0-.1,0-.15c.18-1.84.42-3.82.72-5.89,2.08-14.48,7.28-33.39,20.24-41,6.77-4,11.3-4.84,14.34-4.15,4.68,1.07,5.79,5.89,6,8.93,0,.2,0,.39,0,.58A14.61,14.61,0,0,1,498.74,547.48Z" />
  <path
     id="path1296"
     fill="#3a3768"
     transform="translate(-17.96 -172.03)"
     d="M315.15,679.24c0,.11-.08.22-.11.33h0c0-.11.07-.22.12-.33Z" />
  <polygon
     id="polygon1298"
     fill="#3a3768"
     points="335.94 507.2 336.05 507.53 335.31 507.53 335.2 507.2 335.94 507.2" />
  <path
     id="path1300"
     fill="#3a3768"
     transform="translate(-17.96 -172.03)"
     d="M439.4,679.55l0,0h0Z" />
  <path
     id="path1302"
     fill="#3a3768"
     transform="translate(-17.96 -172.03)"
     d="M496.18,546.63s-13.05,35.66-12.42,57,10.82,61.44,10.82,61.44.44,1.41.91,3.66c-14.07.23-28.17.63-42.28,1.11l-2.54.08-.84,0c-30,1.06-60,2.47-89.92,3.48l-7.31.24-1.06,0q-15.6.5-31.17.77l-2.75,0h-.09l-3.34,0a18,18,0,0,1,5.49-5.77l.27-.19A55.66,55.66,0,0,1,335.29,662a12.59,12.59,0,0,1,3.51-.42l9.24.18,1.08,0,11.13.22L450,663.77a15.09,15.09,0,0,0,3.71-1.21,10.66,10.66,0,0,0,1.14-.61h0a12,12,0,0,0,3-2.45c1.89-2.15,3.15-5.35,2.31-10-2.23-12.41-6-50.61-6-50.61s-.64-46.48,21.64-59.53c9-5.27,14.06-5.09,16.89-3a1.88,1.88,0,0,1,.24.18C496.83,539.68,496.18,546.63,496.18,546.63Z" />
  <path
     id="path1304"
     fill="#eaecf0"
     transform="translate(-17.96 -172.03)"
     d="M137.08,634.13l-.36,3.73-2.18,22.89q-5.11-1.07-10.2-2.24l2.55-20.81.86-7.07Z" />
  <polygon
     id="polygon1306"
     fill="#efc6cd"
     points="55.12 454.7 109.58 338.79 328.95 355.9 349.17 454.7 55.12 454.7" />
  <polygon
     id="polygon1308"
     fill="#d48a9b"
     points="55.12 464.81 55.12 454.7 349.17 454.7 349.17 469.48 55.12 464.81" />
  <path
     id="path1310"
     fill="#dfe6f5"
     transform="translate(-17.96 -172.03)"
     d="M156,609.8l131.56,2.68a1.82,1.82,0,0,0,1.77-2.39l-20.51-55.32-88.61-1.69L154,606.74A2.18,2.18,0,0,0,156,609.8Z" />
  <path
     id="path1312"
     opacity="0.15"
     transform="translate(-17.96 -172.03)"
     d="M156,609.8l131.56,2.68a1.82,1.82,0,0,0,1.77-2.39l-20.51-55.32-88.61-1.69L154,606.74A2.18,2.18,0,0,0,156,609.8Z" />
  <path
     id="path1314"
     fill="#dfe6f5"
     transform="translate(-17.96 -172.03)"
     d="M154.94,607.49l132.92,2.8-18.07-54.73a4.51,4.51,0,0,0-4.19-3.1l-85.42-1.62Z" />
  <path
     id="path1316"
     fill="#4c4c56"
     transform="translate(-17.96 -172.03)"
     d="M165.92,595.1l15.93-35.05a4.25,4.25,0,0,1,3.86-2.48H225.3a4.23,4.23,0,0,1,4.23,4.23v37.87a4.24,4.24,0,0,1-4.44,4.23l-55.53-2.83A4.23,4.23,0,0,1,165.92,595.1Z" />
  <path
     id="path1318"
     fill="#d1d9ec"
     transform="translate(-17.96 -172.03)"
     d="M244,590.66l.68-20a3.07,3.07,0,0,1,3.06-3h11.7a3.06,3.06,0,0,1,3,2.54l3.44,19.89a3.07,3.07,0,0,1-3,3.59l-15.83.14A3.06,3.06,0,0,1,244,590.66Z" />
  <path
     id="path1320"
     fill="#4c4c56"
     transform="translate(-17.96 -172.03)"
     d="M89,460.58l44.11-3.68a3,3,0,0,1,3.14,1.77l41.71,94.41-23.28,52.26c.73-1.64,1.27,11.12-4,.06L84.39,467.11C83.5,465.26,86.93,460.84,89,460.58Z" />
  <path
     id="path1322"
     opacity="0.15"
     transform="translate(-17.96 -172.03)"
     d="M89,460.58l44.11-3.68a3,3,0,0,1,3.14,1.77l41.71,94.41-23.28,52.26c.73-1.64,1.27,11.12-4,.06L84.39,467.11C83.5,465.26,86.93,460.84,89,460.58Z" />
  <path
     id="path1324"
     fill="#4c4c56"
     transform="translate(-17.96 -172.03)"
     d="M89,460.58l46.35-5.92a3,3,0,0,1,3.14,1.77l41.72,94.41-25.24,56.65L86.63,464.87A3,3,0,0,1,89,460.58Z" />
  <path
     id="path1326"
     fill="#55198b"
     transform="translate(-17.96 -172.03)"
     d="M100.57,467.22,134.08,462a3,3,0,0,1,3.25,1.84l35.1,85.86a2.72,2.72,0,0,1-.06,2.2L156.3,585.48a2.71,2.71,0,0,1-4.91,0l-53.09-114A3,3,0,0,1,100.57,467.22Z" />
  <path
     id="path1328"
     fill="url(#ac59aa7e-40f5-4d5f-b82f-fdd6bf7d03ee)"
     transform="translate(-17.96 -172.03)"
     d="M439.4,679.55l0,0h0Z" />
  <path
     id="path1330"
     fill="url(#72a3db62-0825-44ad-a640-19754e14ba99)"
     transform="translate(-17.96 -172.03)"
     d="M458.12,660.68s-.69,1.14-1.7,3l-.09.17c-.9,1.6-2,3.7-3.12,6l-2.54.08-.84,0c-30,1.06-60,2.47-89.92,3.48l-7.31.24-1.06,0q-15.6.5-31.17.77l-2.75,0h-.09l-3.34,0-4.64.06q-7.23.07-14.43.08H289.4c-17.62-.05-35.17-.44-52.61-1.35l-1.94-.11c3.43-7.46,9.56-19.69,14.54-23.6,3.85-3,31.5-6.33,56.93-8.77l2.68-.26h.06l7.1-.66c9.73-.89,18.56-1.61,24.86-2.1l.58-.05-3.28-11-4.75-16,1.35-13.44.11-1.08h-.15a8.83,8.83,0,0,1-4-.5l-47.49-1.64-.86,0h0l-18.24-.65h0c-9.78-.35-16.73-.61-17-.66a4.31,4.31,0,0,1-.84-.23,3.78,3.78,0,0,1-1.16-.7,4.64,4.64,0,0,1-1-1.2l-.2,0-.44,0-2.58.17-1.31.09c-.05-.14-.09-.28-.14-.41-.12-.39-.24-.76-.35-1.14h-.69l-9-.19h-.16s-23.22,1.77-35.35-2.65h0c-4.45-1.62-7.41-4.07-7.18-7.74a8.37,8.37,0,0,1,.52-2.44c-3.9-7.29,15.15-20.59,29.67-16.92a25.7,25.7,0,0,0,12.06.5,15.52,15.52,0,0,0,6-2.73c.18-.13.34-.26.49-.39-.24-.15-.49-.28-.72-.4a11.18,11.18,0,0,0-3.17-1.1l3.94-1.15h.06s14-1.28,23.11-1.79h.06c2.71-.14,5-.23,6.36-.19,6,.17,17.69-4.12,18.19-5.44s5.84,0,5.84,0l4.67-1.82c4.67-1.81,7.34-4.28,7.34-6.1s4.17-3.79,4.17-3.79c1.88-3.16,5.57-6.55,9.44-9.55,3.35-2.59,6.83-4.9,9.41-6.51a189.75,189.75,0,0,1,4-19.24c1.77-5.91,7.26-10.29,9.23-11.71l.72-.48a51.85,51.85,0,0,0-2.2-7.32q-.1-.3-.24-.6c-.2-.47-.41-.93-.62-1.36l-.31-.6c-.51.1-1,.19-1.54.26a35,35,0,0,1-5,.37,34.31,34.31,0,0,1-33.15-25s0,0,0-.06a33.86,33.86,0,0,1-1.2-9,32.92,32.92,0,0,1,1.14-8.64s0,0,0,0c.15-.6.33-1.19.52-1.78a1.59,1.59,0,0,1,.07-.2c.09-.27.18-.55.28-.82a35.17,35.17,0,0,1-4.47.39h-1a21.16,21.16,0,0,1-8.37-1.39h0a11.36,11.36,0,0,1-1.85-1,.24.24,0,0,1-.08-.06A9.38,9.38,0,0,1,278.2,429a10.6,10.6,0,0,0,4.07-7.08c.27-2.16-.09-4.57,1.2-6.33a9.08,9.08,0,0,1,2.34-2c5.32-3.63,9.54-8.61,14.35-12.9s10.63-8,17.1-8.2c8.68-.27,16.32,5.77,24.92,6.91,2.64.35,5.35.23,7.93.89a27.3,27.3,0,0,1,8.05,4.08,20.21,20.21,0,0,1,5.74,4.88,17.21,17.21,0,0,1,2.34,5.59,61.82,61.82,0,0,1,2,12.81c.23,4.53,0,9.09.48,13.59a23.31,23.31,0,0,0,3.84,10.93l.13,0a15,15,0,0,0,1.24,1.52c-.85.27-1.7.51-2.57.72a40.56,40.56,0,0,1-4.39.87,12.79,12.79,0,0,1-2.05.17,6.11,6.11,0,0,1-1.42-.13l.88.59,2.44,1.64,0,0,.92.61,1.85,1.23c.42-1.23,1-1.56,1.67-1.48,1.36-1.28,3.39,1.49,3.39,1.49,1.19,2.28,4.39,4.55,7.22,6.23a57.06,57.06,0,0,0,5.13,2.68c37.37,22.27,35,55.59,37.2,58.23s2.34,12.2,2.34,12.2,5.51,32.49,8,35.3.16,3.79,2.33,6.93,1.67,11.54,1.67,11.54,1.5,19.79,6.84,24.08c4.79,3.85,11.19,36.24,12.46,42.86Z" />
  <path
     id="path1332"
     fill="#d38884"
     transform="translate(-17.96 -172.03)"
     d="M239.09,556.44s-5.19,8.17-19.89,4.41-34.15,10.46-28.6,17.48,41.34-2,41.34-2l13.73-2.78-.9-11.43Z" />
  <path
     id="path1334"
     opacity="0.1"
     transform="translate(-17.96 -172.03)"
     d="M239.09,556.44s-5.19,8.17-19.89,4.41-34.15,10.46-28.6,17.48,41.34-2,41.34-2l13.73-2.78-.9-11.43Z" />
  <path
     id="path1336"
     fill="#a36468"
     transform="translate(-17.96 -172.03)"
     d="M243.87,556l-6.37-.33-3.92,1.14s12.42,1.8,9,18.63l13.39-.81Z" />
  <path
     id="path1338"
     opacity="0.1"
     transform="translate(-17.96 -172.03)"
     d="M243.87,556l-6.37-.33-3.92,1.14s12.42,1.8,9,18.63l13.39-.81Z" />
  <path
     id="path1340"
     fill="#444053"
     transform="translate(-17.96 -172.03)"
     d="M328.19,518.36s-17.48,10-22.39,18.31c0,0-4.08,2-4.08,3.76s-2.62,4.24-7.19,6l-4.58,1.8s-5.23-1.31-5.72,0-11.92,5.55-17.81,5.39-28.92,2-28.92,2a20.47,20.47,0,0,1,11.6,22.71l54.42-2.28,20.58-4.58,12.1-12.09Z" />
  <path
     id="path1342"
     opacity="0.1"
     transform="translate(-17.96 -172.03)"
     d="M328.19,518.36s-17.48,10-22.39,18.31c0,0-4.08,2-4.08,3.76s-2.62,4.24-7.19,6l-4.58,1.8s-5.23-1.31-5.72,0-11.92,5.55-17.81,5.39-28.92,2-28.92,2a20.47,20.47,0,0,1,11.6,22.71l54.42-2.28,20.58-4.58,12.1-12.09Z" />
  <path
     id="path1344"
     fill="#d38884"
     transform="translate(-17.96 -172.03)"
     d="M248,590.66l-7.7-.15-9-.19S188.8,593.59,189.63,580s33.52-18.36,38.07-14.46c3.45,2.95,11.43,5.33,15.07,6.3,1.16.31,1.87.48,1.87.48Z" />
  <path
     id="path1346"
     opacity="0.1"
     transform="translate(-17.96 -172.03)"
     d="M248,590.66l-7.7-.15c-3.07-10.55.49-16.36,2.51-18.64,1.16.31,1.87.48,1.87.48Z" />
  <path
     id="path1348"
     fill="#a36468"
     transform="translate(-17.96 -172.03)"
     d="M253.19,591.24l-8,.56-3.8.26c-5.23-15.36,3.22-21.41,3.22-21.41h2.5l4.09.49Z" />
  <path
     id="path1350"
     fill="#d38884"
     transform="translate(-17.96 -172.03)"
     d="M350.09,489.28l-9.48,18s-1.45-18.23-5.67-26.82c-1.08-2.2-2.34-3.76-3.81-4.23-4-1.26,19-26.47,19-26.47.77.16,5.17,3,10.56,6.67,5.93,4,13.07,8.88,17.87,12C387.67,474.24,350.09,489.28,350.09,489.28Z" />
  <path
     id="path1352"
     fill="#444053"
     transform="translate(-17.96 -172.03)"
     d="M337.93,489.62s-7.62,4.89-9.74,12.08-4.09,20.1-4.09,20.1,3.44,30.88,5.23,32.35,8.6,32.35,8.6,32.35l6.6-4.41-8.66-38.89S341.63,493.23,337.93,489.62Z" />
  <path
     id="path1354"
     opacity="0.1"
     transform="translate(-17.96 -172.03)"
     d="M337.93,489.62s-7.62,4.89-9.74,12.08-4.09,20.1-4.09,20.1,3.44,30.88,5.23,32.35,8.6,32.35,8.6,32.35l6.6-4.41-8.66-38.89S341.63,493.23,337.93,489.62Z" />
  <polygon
     id="polygon1356"
     fill="#a36468"
     points="353.13 386.48 315.04 386.48 321.21 326.39 353.13 326.39 353.13 386.48" />
  <path
     id="path1358"
     fill="#67647e"
     transform="translate(-17.96 -172.03)"
     d="M282.84,679.24h.46l-.86.33Z" />
  <path
     id="path1360"
     fill="#67647e"
     transform="translate(-17.96 -172.03)"
     d="M354.5,651.87l-7.45,2.86-1,.37-26.82,10.31L309,669.34l-13.92,5.35H289.4c-17.62-.05-35.17-.44-52.61-1.35,3.38-7.41,9.29-19.27,14.11-23.1,3.76-3,30.66-6.24,55.49-8.68,3.1-.3,6.16-.59,9.14-.86l.71-.07c9.86-.9,18.78-1.63,25-2.13l1-.08,7.82-.6.82-.82,1,4.28.83,3.42Z" />
  <path
     id="path1362"
     opacity="0.1"
     transform="translate(-17.96 -172.03)"
     d="M282.84,679.24h.46l-.86.33Z" />
  <path
     id="path1364"
     opacity="0.1"
     transform="translate(-17.96 -172.03)"
     d="M354.5,651.87l-7.45,2.86-1,.37-26.82,10.31L309,669.34l-13.92,5.35H289.4c-17.62-.05-35.17-.44-52.61-1.35,3.38-7.41,9.29-19.27,14.11-23.1,3.76-3,30.66-6.24,55.49-8.68,3.1-.3,6.16-.59,9.14-.86l.71-.07c9.86-.9,18.78-1.63,25-2.13l1-.08,7.82-.6.82-.82,1,4.28.83,3.42Z" />
  <path
     id="path1366"
     fill="#67647e"
     transform="translate(-17.96 -172.03)"
     d="M282.84,679.24h.46l-.86.33Z" />
  <path
     id="path1368"
     fill="#67647e"
     transform="translate(-17.96 -172.03)"
     d="M315.15,679.24c0,.11-.08.22-.11.33h0c0-.11.07-.22.12-.33Z" />
  <polygon
     id="polygon1370"
     fill="#67647e"
     points="336.05 507.53 335.31 507.53 335.2 507.2 335.94 507.2 336.05 507.53" />
  <path
     id="path1372"
     fill="#67647e"
     transform="translate(-17.96 -172.03)"
     d="M360.87,641.42,360.25,662l0,1.11v.11l-.31,10.19-7.31.24-1.06,0q-15.6.5-31.17.77l-2.75,0h-.09l-3.34,0-4.64.06q-7.23.07-14.43.08H289.4c5.2-3.22,11.93-6.77,19.17-10.32,3.25-1.6,6.62-3.19,10-4.76,9-4.18,18.11-8.13,25.54-11.28l.95-.4c2.88-1.22,5.49-2.31,7.72-3.23,4.82-2,7.88-3.2,8.09-3.28Z" />
  <path
     id="path1374"
     opacity="0.1"
     transform="translate(-17.96 -172.03)"
     d="M294.08,556.84c1.87,3.9,3.8,7.88,6.89,10.92.49.48,1.34.92,1.78.39a1.26,1.26,0,0,0,.19-.74,9.54,9.54,0,0,0-1.8-5.1c-1-1.54-2.18-2.94-3.07-4.54s-1.91-4.68-3.91-5.1C291.59,552.13,293.51,555.66,294.08,556.84Z" />
  <path
     id="path1376"
     opacity="0.1"
     transform="translate(-17.96 -172.03)"
     d="M360.65,456.4c-.14.5-.29,1-.45,1.48a33.69,33.69,0,0,1-25.26,22.55c-1.08-2.2-2.34-3.76-3.81-4.23-4-1.26,19-26.47,19-26.47C350.86,449.89,355.26,452.78,360.65,456.4Z" />
  <path
     id="path1378"
     fill="#d38884"
     transform="translate(-17.96 -172.03)"
     d="M361.85,446.79a33.66,33.66,0,1,1-33.66-33.66A33.59,33.59,0,0,1,361.85,446.79Z" />
  <path
     id="path1380"
     fill="#67647e"
     transform="translate(-17.96 -172.03)"
     d="M341.1,496.79s-7,8.5-5.88,14.06h8.49l6.21-7Z" />
  <path
     id="path1382"
     opacity="0.1"
     transform="translate(-17.96 -172.03)"
     d="M366,460.9,339.3,497.61s6.86,9.81,10.13,10.3,21.92-43.42,21.92-43.42Z" />
  <path
     id="path1384"
     fill="#a36468"
     transform="translate(-17.96 -172.03)"
     d="M366.34,460.24,339.63,497s6.86,9.8,10.13,10.29,21.92-43.41,21.92-43.41Z" />
  <path
     id="path1386"
     fill="#67647e"
     transform="translate(-17.96 -172.03)"
     d="M336.2,507.26s-1.31,20.58-2.62,24.67,0,41.66,0,41.66l12.26-5.06-2.13-57.68Z" />
  <polygon
     id="polygon1388"
     opacity="0.1"
     points="335.94 507.2 336.05 507.53 335.31 507.53 335.2 507.2 335.94 507.2" />
  <path
     id="path1390"
     opacity="0.1"
     transform="translate(-17.96 -172.03)"
     d="M439.4,679.55l0,0h0Z" />
  <path
     id="path1392"
     opacity="0.1"
     transform="translate(-17.96 -172.03)"
     d="M454.34,661.51s-.23.38-.61,1-.79,1.39-1.32,2.37a.75.75,0,0,0-.07.12c-.74,1.37-1.62,3.05-2.51,4.88-30,1.06-60,2.47-89.92,3.48l-7.31.24-1.06,0L348.4,663l0-.11-.33-1.12-2-6.66-2-6.77L342,641.12l-.76-2.62-.2-.66-3.26-11.1-4.42-15.07,1.43-14.38h0l.1-1.09,1.29-12.88.18-3.82v0l.1-2,0-.57h0l.22-4.64.66-13.8.34-7.06v0l.06-1.07h0l.68-14.17,1.93-5.79,1-2.88,2.22-6.69.48-1.65v0c.7-2.51,2.11-7.47,3.43-12.24h0l.12-.41h0l.09-.31.94-3.39,1.17-4.35c.44-1.67.73-2.86.8-3.27.11-.71,2-3.85,4.48-8h0c5-8.27,12.52-20.44,13.38-24.52a.44.44,0,0,0,0-.1,5,5,0,0,1,.21-.73c.41-1.22,1-1.55,1.62-1.47a2,2,0,0,1,.79.31,6.29,6.29,0,0,1,1.56,1.5c1.17,2.25,4.3,4.5,7.07,6.17l.54.31.32.19c2.3,1.31,4.16,2.15,4.16,2.15,36.6,22.06,34.32,55.07,36.44,57.68s2.29,12.1,2.29,12.1,5.39,32.19,7.84,35,.17,3.76,2.29,6.87S435.22,594,435.22,594s1.47,19.6,6.7,23.85S454.34,661.51,454.34,661.51Z" />
  <path
     id="path1394"
     fill="#444053"
     transform="translate(-17.96 -172.03)"
     d="M455.32,661.19l-.44.76h0c-.35.62-.91,1.6-1.58,2.83l-.07.14c-.76,1.41-1.66,3.12-2.55,5l-.84,0c-30,1.06-60,2.47-89.92,3.48l-7.31.24L349.48,663l0-.11-.33-1.12-2.07-7-2-6.8-2-6.79-.79-2.72h0l-3.42-11.68-4.52-15.39,1.25-12.51.17-1.67L337.15,583v0l.53-11.08.65-13.39.17-3.51.19-4.06.08-1.71.65-13.38,1.93-5.78.83-2.49,1.94-5.85.41-1.24s1.87-6.57,3.68-13.08c.07-.24.14-.48.2-.72.16-.56.31-1.12.47-1.67h0c.16-.56.31-1.11.45-1.66.51-1.82,1-3.52,1.34-4.92.49-1.83.82-3.16.89-3.59.11-.71,2-3.94,4.57-8.14,4.73-7.82,11.63-19,13.09-23.64a7.51,7.51,0,0,0,.2-.73h0a3.81,3.81,0,0,1,.87-2c1.34-1.29,3.33,1.48,3.33,1.48,1.17,2.25,4.3,4.51,7.07,6.17a53,53,0,0,0,5,2.65c36.6,22.06,34.32,55.07,36.44,57.69s2.29,12.09,2.29,12.09,5.39,32.19,7.84,35,.17,3.76,2.29,6.86,1.63,11.44,1.63,11.44,1.47,19.61,6.7,23.86S455.32,661.19,455.32,661.19Z" />
  <path
     id="path1396"
     opacity="0.1"
     transform="translate(-17.96 -172.03)"
     d="M380.69,468.65c-3.59,5.22-9.44,14.4-11,21,0,0-5.72,5.89-7.85,5.56s2,4.41,2,4.41l-22.47,31.14,3.19-9.57s6.7-23.53,7-25.65,16.57-26.41,17.86-32.52c1-4.89,4.2-.49,4.2-.49C374.78,464.73,377.91,467,380.69,468.65Z" />
  <path
     id="path1398"
     fill="#444053"
     transform="translate(-17.96 -172.03)"
     d="M380.69,468c-3.59,5.21-9.44,14.4-11,20.95,0,0-5.72,5.88-7.85,5.56s2,4.41,2,4.41l-22.47,31.14,3.19-9.57s6.7-23.53,7-25.66,16.57-26.4,17.86-32.51c1-4.9,4.2-.49,4.2-.49C374.78,464.08,377.91,466.33,380.69,468Z" />
  <path
     id="path1400"
     opacity="0.1"
     transform="translate(-17.96 -172.03)"
     d="M410.87,532.52c.17,7.14-10.29,16.89-10.78,17.46s-32.52,27-32.52,27l-23,17.64a19.54,19.54,0,0,1-9,4.16L337.14,583l1.55-32c3.59-4,7.07-8.2,7.15-9.54.16-2.77,6-5.72,6-5.72s4.09-3.43,3.43-5.39S357.44,519,357.44,519c1.47-26.64,28.92-29.25,28.92-29.25s13.24,5.23,22.55,10.78S410.71,525.39,410.87,532.52Z" />
  <path
     id="path1402"
     opacity="0.1"
     transform="translate(-17.96 -172.03)"
     d="M253.19,591.24l-8,.56c-3.38-5.75,1.27-21.15,1.27-21.15h.65l4.09.49Z" />
  <path
     id="path1404"
     fill="#444053"
     transform="translate(-17.96 -172.03)"
     d="M386.36,488.13s-27.45,2.62-28.92,29.25c0,0-2.78,9.32-2.13,11.28s-3.43,5.39-3.43,5.39-5.88,2.94-6,5.72-15,17.94-15,17.94-6.2,7.06-20.58,7.8-21.08,5.14-21.08,5.14-7-4.9-12.1-3.43-29.9,3.43-29.9,3.43-6.59,21.84,1.63,23.21c1,.16,81.9,2.94,81.9,2.94s5.53,2.61,13.86-3.76,23-17.65,23-17.65,32-26.47,32.52-27,11-10.33,10.78-17.46,7.36-26.42-2-32S386.36,488.13,386.36,488.13Z" />
  <path
     id="path1406"
     opacity="0.1"
     transform="translate(-17.96 -172.03)"
     d="M361.85,446.79a33.59,33.59,0,0,1-1.65,10.43,14.07,14.07,0,0,1-1.24-1.71q-2.34-3.6-4.69-7.2a19.46,19.46,0,0,0-4.77-5.62c-2-1.42-4.84-2-7-.74-1.9,1.12-2.83,3.41-3,5.61a63.69,63.69,0,0,0,.17,6.62,3.65,3.65,0,0,1-.61,2.39,3.92,3.92,0,0,1-2.58,1l-3,.41a2.15,2.15,0,0,1-2.76-1.37c-2.49-4.51-4.21-10.11-8.88-12.28-2.88-1.34-6.68-1.25-8.53-3.83-1.26-1.76-1.09-4.15-.72-6.29a49.65,49.65,0,0,1,1.75-7.12c.53-1.64,1.71-4.91-.91-5.24-1.78-.23-4.24,1.66-5.14,3s-1.12,3.13-1.76,4.66a11.13,11.13,0,0,1-6.15,5.71,17.62,17.62,0,0,1-4.24,1.15,33.66,33.66,0,0,1,65.7,10.34Z" />
  <path
     id="path1408"
     fill="#444053"
     transform="translate(-17.96 -172.03)"
     d="M308.3,424c-.91,1.39-1.12,3.12-1.76,4.65a11.14,11.14,0,0,1-6.14,5.71,23.63,23.63,0,0,1-8.43,1.5c-4.66.14-9.86-.57-12.86-4.14a10.53,10.53,0,0,0,4-7c.26-2.14-.09-4.53,1.18-6.28a9,9,0,0,1,2.28-1.93c5.22-3.6,9.34-8.54,14.06-12.78s10.41-7.93,16.75-8.13c8.49-.26,16,5.72,24.4,6.85,2.58.35,5.24.23,7.76.88a26.46,26.46,0,0,1,7.89,4,20.19,20.19,0,0,1,5.63,4.84,17.41,17.41,0,0,1,2.29,5.54,61.86,61.86,0,0,1,2,12.69c.23,4.48,0,9,.48,13.46s1.9,9,4.95,12.3a44,44,0,0,1-6.81,1.57,7.09,7.09,0,0,1-4.33-.34,7.63,7.63,0,0,1-2.64-2.85l-4.69-7.2a19.46,19.46,0,0,0-4.77-5.62c-2-1.42-4.84-2-7-.74-1.9,1.12-2.82,3.41-3,5.61a63.69,63.69,0,0,0,.17,6.62,3.65,3.65,0,0,1-.61,2.39,3.93,3.93,0,0,1-2.59,1l-3,.41a2.15,2.15,0,0,1-2.76-1.37c-2.49-4.52-4.21-10.11-8.88-12.28-2.88-1.34-6.68-1.25-8.53-3.83-1.26-1.76-1.09-4.15-.72-6.29a49.65,49.65,0,0,1,1.75-7.12c.53-1.64,1.71-4.91-.91-5.25C311.66,420.68,309.2,422.57,308.3,424Z" />
  <path
     id="path1410"
     opacity="0.1"
     transform="translate(-17.96 -172.03)"
     d="M384.44,503.07c2.53-.35,5.19-.58,7.56.39-6.17-2.53-16.21-1.56-21.83,1.92C370.68,506.55,382.48,503.34,384.44,503.07Z" />
  <path
     id="path1412"
     opacity="0.1"
     transform="translate(-17.96 -172.03)"
     d="M387.39,511.27c6.15.41,12.5,1.27,18.33-.73-4.88-1.68-10.25-.62-15.39-1.13-4.1-.41-8.27-1.83-12.27-.79-1.67.43-7.82,3.26-7.4,5.33A33.23,33.23,0,0,1,387.39,511.27Z" />
  <path
     id="path1414"
     opacity="0.1"
     transform="translate(-17.96 -172.03)"
     d="M371.1,524.71a9.24,9.24,0,0,1,3.82.4A58.43,58.43,0,0,0,389,526.66c3.62,0,7.52-.55,10.16-3Z" />
  <path
     id="path1416"
     opacity="0.1"
     transform="translate(-17.96 -172.03)"
     d="M351.29,556a28.18,28.18,0,0,0,13.75,2.5,60.69,60.69,0,0,0,13.84-2.66c2-.59,4.18-1.33,5.35-3.07Z" />
  <path
     id="path1418"
     opacity="0.1"
     transform="translate(-17.96 -172.03)"
     d="M395.56,560.4a73.46,73.46,0,0,0,30.52,9.45q-8.13-3.26-16.38-6.17a118.64,118.64,0,0,0-17.25-4.62A8.77,8.77,0,0,1,395.56,560.4Z" />
  <path
     id="path1420"
     opacity="0.1"
     transform="translate(-17.96 -172.03)"
     d="M410.67,554.67a25.79,25.79,0,0,0,5.69.31c1,0,2.19-.14,2.78-1-4.29.18-8.52-.92-12.71-1.87-1.19-.28-3.33-.94-4.33-.23C404,553.24,408.27,554.19,410.67,554.67Z" />
  <path
     id="path1422"
     opacity="0.1"
     transform="translate(-17.96 -172.03)"
     d="M436.46,644c2.25,3.86,4.53,7.76,7.64,11a56.07,56.07,0,0,0,5.73,4.92c-3.71-9.46-7.48-19-13.42-27.27-1.5-2.08-3.74-5.06-6.47-5.44-.78,2.31,1.19,6.4,2.14,8.57A82.49,82.49,0,0,0,436.46,644Z" />
  <path
     id="path1424"
     opacity="0.1"
     transform="translate(-17.96 -172.03)"
     d="M327.13,573.26c-.17,1.6-.3,3.37.63,4.68a3.38,3.38,0,0,0,1.9,1.31c-.48-.12-1-4.82-1.12-5.46-.22-1.31,0-3.76-.93-4.73C327.37,570.44,327.28,571.86,327.13,573.26Z" />
  <path
     id="path1426"
     opacity="0.1"
     transform="translate(-17.96 -172.03)"
     d="M332.33,571.42a10.66,10.66,0,0,0,5,6.77c-1.75-2.16-2.32-5-3.84-7.37-.49-.76-1.06-1.85-2-2A27.49,27.49,0,0,0,332.33,571.42Z" />
  <path
     id="path1428"
     opacity="0.1"
     transform="translate(-17.96 -172.03)"
     d="M327.93,542.62a12.49,12.49,0,0,1-9.9,1.25c-.75-.22-2.5-1-2.08-2.1s2.45-.34,3.28-.24l4.35.55C324.38,542.18,327.28,543,327.93,542.62Z" />
  <path
     id="path1430"
     opacity="0.1"
     transform="translate(-17.96 -172.03)"
     d="M313.21,549.74c2.05-.26,3.89,1.16,5.81,1.93a17.7,17.7,0,0,0,6.6.88c1.12,0,2.39-.09,3.08-1C323.49,550.36,318.62,549.05,313.21,549.74Z" />
  <polygon
     id="polygon1432"
     fill="#a36468"
     points="319.97 317.58 320.3 317.58 322.75 326.39 319.97 329.35 319.97 317.58" />
  <g
     id="g1442"
     opacity="0.1">
    <path
       id="path1434"
       transform="translate(-17.96 -172.03)"
       d="M283.75,419.76a20.64,20.64,0,0,0-.45,4.35,9.61,9.61,0,0,0,.27-1.4C283.69,421.75,283.68,420.74,283.75,419.76Z" />
    <path
       id="path1436"
       transform="translate(-17.96 -172.03)"
       d="M313.58,420.9a1.76,1.76,0,0,1,1.64,2c.47-1.66.73-3.7-1.31-4-1.78-.22-4.24,1.67-5.14,3.05s-1.12,3.13-1.76,4.66a11.11,11.11,0,0,1-6.14,5.71,23.63,23.63,0,0,1-8.43,1.5c-4.24.13-8.93-.46-12-3.26a10.17,10.17,0,0,1-1.19,1.08c3,3.57,8.2,4.28,12.87,4.14a23.62,23.62,0,0,0,8.42-1.5,11.16,11.16,0,0,0,6.15-5.71c.64-1.53.84-3.26,1.75-4.65S311.8,420.68,313.58,420.9Z" />
    <path
       id="path1438"
       transform="translate(-17.96 -172.03)"
       d="M366.4,455.76a7.09,7.09,0,0,1-4.33-.34,7.72,7.72,0,0,1-2.64-2.85q-2.34-3.6-4.69-7.2a19.3,19.3,0,0,0-4.76-5.62c-2-1.43-4.85-2-7-.74-1.91,1.12-2.83,3.41-3.05,5.61,0,.09,0,.18,0,.27a6.32,6.32,0,0,1,2.73-3.92c2.13-1.26,5-.68,7,.74a19.62,19.62,0,0,1,4.77,5.62q2.34,3.6,4.69,7.2a7.55,7.55,0,0,0,2.64,2.85,7.06,7.06,0,0,0,4.32.34,44.34,44.34,0,0,0,6.82-1.57,14.64,14.64,0,0,1-1.22-1.51A42.93,42.93,0,0,1,366.4,455.76Z" />
    <path
       id="path1440"
       transform="translate(-17.96 -172.03)"
       d="M339.51,453.63a4,4,0,0,1-2.58,1l-3,.41a2.15,2.15,0,0,1-2.76-1.37c-2.49-4.52-4.21-10.11-8.88-12.28-2.88-1.34-6.67-1.25-8.52-3.83a7.36,7.36,0,0,1-.89-5.24c-.05.31-.12.61-.17.91-.36,2.14-.54,4.53.73,6.29,1.85,2.58,5.65,2.49,8.52,3.83,4.68,2.17,6.4,7.76,8.89,12.28A2.86,2.86,0,0,0,332,457a2.93,2.93,0,0,0,1.61.07l3-.41a3.92,3.92,0,0,0,2.58-1,3.59,3.59,0,0,0,.61-2.39h0A3,3,0,0,1,339.51,453.63Z" />
  </g>
  <path
     id="path1444"
     fill="#eaecf0"
     transform="translate(-17.96 -172.03)"
     d="M753.4,689.43l-6.41-.89V593.91l1.31.4,4,1.23,0,3.15,0,2.37,0,3.59.05,4.11.09,8.46v.85l0,1.13,0,2.4,0,1.45,0,3.51,0,2.2.48,42.61v1.14l.17,15v.23Z" />
  <path
     id="path1448"
     fill="#d3dae1"
     transform="translate(-17.96 -172.03)"
     d="M757,695.27h0Z" />
  <path
     id="path1450"
     fill="#eaecf0"
     transform="translate(-17.96 -172.03)"
     d="M1146,582.18v81.68q-2.85,2-5.84,3.93l-.08-68v-7.22Z" />
  <path
     id="path1452"
     fill="#d3dae1"
     transform="translate(-17.96 -172.03)"
     d="M1150.16,581v79.7c-1.36,1.09-2.75,2.14-4.16,3.17V582.18Z" />
  <path
     id="path1454"
     fill="#eaecf0"
     transform="translate(-17.96 -172.03)"
     d="M1057.3,696.75c-2.46.5-4.93,1-7.4,1.43l-.09-73.91v-3.2l7.13-3,0,6.78Z" />
  <path
     id="path1456"
     fill="#d3dae1"
     transform="translate(-17.96 -172.03)"
     d="M1062,615.73v80c-1.56.34-3.12.66-4.68,1l-.33-71.87,0-6.78.47-.22h0Z" />
  <path
     id="path1458"
     fill="#eaecf0"
     transform="translate(-17.96 -172.03)"
     d="M638.15,674.61l-6.65-.67-.85-83.34,0-2.38,0-1.59h6.53l0,2.15,0,2.38Z" />
  <path
     id="path1460"
     fill="#d3dae1"
     transform="translate(-17.96 -172.03)"
     d="M643.1,675.14l-5-.53-1-83.45,0-2.38,0-2.15h5.05l0,2.59,0,2.38Z" />
  <polygon
     id="polygon1462"
     opacity="0.1"
     points="1039.45 445.84 1044.02 443.69 1044.02 453.78 1039.57 455.27 1039.45 445.84" />
  <polygon
     id="polygon1464"
     opacity="0.1"
     points="1132.19 408.95 1132.19 424.39 1128.04 425.78 1122.11 427.75 1122.1 420.53 1128.04 410.14 1132.19 408.95" />
  <polygon
     id="polygon1466"
     fill="#d48a9b"
     points="1132.19 379.27 1132.19 422.02 1039.57 452.89 1038.97 407.17 1132.19 379.27" />
  <polygon
     id="polygon1468"
     fill="#efc6cd"
     points="611.46 376.3 733.18 353.14 1132.19 379.27 1038.97 407.17 611.46 376.3" />
  <polygon
     id="polygon1470"
     opacity="0.1"
     points="624.23 414.6 624.27 419.56 619.23 419.12 612.68 418.56 612.65 414.6 624.23 414.6" />
  <polygon
     id="polygon1472"
     opacity="0.1"
     points="738.28 429.36 734.43 429.02 729.03 428.56 729.03 421.88 734.37 423.5 738.23 423.5 738.28 429.36" />
  <polygon
     id="polygon1474"
     fill="#d48a9b"
     points="611.46 376.3 611.46 416.08 1039.57 452.89 1038.97 407.17 611.46 376.3" />
  <polygon
     id="polygon1476"
     fill="#d48a9b"
     points="950.9 423.6 894.98 423.6 894.98 403.31 950.9 407.25 950.9 423.6" />
  <polygon
     id="polygon1478"
     opacity="0.1"
     points="950.9 423.6 894.98 423.6 894.98 403.31 950.9 407.25 950.9 423.6" />
  <polygon
     id="polygon1480"
     opacity="0.1"
     points="819.87 398.86 819.87 430.92 1034.52 447.25 1034.52 413.11 950.8 408.36 942.48 415.78 908.34 413.41 896.17 404.5 819.87 398.86" />
  <polygon
     id="polygon1482"
     fill="#fff"
     points="818.68 397.67 818.68 429.74 1033.33 446.06 1033.33 411.92 949.61 407.17 941.3 414.6 907.15 412.22 894.98 403.31 818.68 397.67" />
  <polygon
     id="polygon1484"
     fill="#d48a9b"
     points="686.27 389.06 737.04 392.63 736.45 408.76 703.3 408.76 681.13 400.05 686.27 389.06" />
  <polygon
     id="polygon1486"
     opacity="0.1"
     points="686.27 389.06 737.04 392.63 736.45 408.76 703.3 408.76 681.13 400.05 686.27 389.06" />
  <polygon
     id="polygon1488"
     opacity="0.1"
     points="618.59 384.61 618.59 413.41 813.34 428.85 813.34 398.27 738.23 393.81 730.21 399.75 699.93 397.97 687.46 390.25 618.59 384.61" />
  <polygon
     id="polygon1490"
     fill="#fff"
     points="617.4 383.42 617.4 412.22 812.15 427.66 812.15 397.08 737.04 392.63 729.03 398.56 698.74 396.78 686.27 389.06 617.4 383.42" />
  <polygon
     id="polygon1492"
     opacity="0.1"
     points="1034.54 383.53 1061.84 385.32 1016.61 398.86 993.57 397.2 1034.54 383.53" />
  <polygon
     id="polygon1494"
     fill="#fff"
     points="1034.54 382.35 1061.84 384.13 1016.61 397.67 993.57 396.01 1034.54 382.35" />
  <path
     id="path1496"
     fill="#d3dae1"
     transform="translate(-17.96 -172.03)"
     d="M1049.24,557.45c1.08-.47,2.23.4,3.38.62.65.13,1.33,0,2,.13,1.34.18,2.66,1.07,3.94.62Z" />
  <path
     id="path1498"
     fill="#d3dae1"
     transform="translate(-17.96 -172.03)"
     d="M1047.83,558.26c1.07-.46,2.22.41,3.37.63.66.12,1.34,0,2,.12,1.33.18,2.66,1.08,3.94.63Z" />
  <path
     id="path1500"
     fill="#d3dae1"
     transform="translate(-17.96 -172.03)"
     d="M1044.59,559.9c1.07-.46,2.22.4,3.37.62.66.13,1.33,0,2,.13,1.34.18,2.67,1.08,3.94.62Z" />
  <polygon
     id="polygon1502"
     opacity="0.1"
     points="850.35 368.55 911.22 372.54 898.25 391.17 831.33 384.02 850.35 368.55" />
  <polygon
     id="polygon1504"
     fill="#3a3768"
     points="849.16 367.36 910.03 371.34 897.06 389.98 830.13 382.83 849.16 367.36" />
  <polygon
     id="polygon1506"
     fill="#d5e1f4"
     points="851.84 368.73 904.93 371.98 893.62 387.16 835.25 381.33 851.84 368.73" />
  <path
     id="path1508"
     fill="#3a3768"
     transform="translate(-17.96 -172.03)"
     d="M757,695.27h0Z" />
  <path
     id="path1510"
     opacity="0.1"
     transform="translate(-17.96 -172.03)"
     d="M757,695.27h0Z" />
  <path
     id="path1512"
     fill="#3a3768"
     transform="translate(-17.96 -172.03)"
     d="M756.54,695.27h0Z" />
  <path
     id="path1514"
     fill="#3a3768"
     transform="translate(-17.96 -172.03)"
     d="M834.2,693c0,.28,0,.57-.05.85s0,.5-.08.75a16.89,16.89,0,0,1-1.45,5.09h0c-25.15-2.83-50.36-6.23-75.6-9.72l-3.57-.5-6.41-.89-5.4-.75h0a130.08,130.08,0,0,1-17.64-1.65,91.25,91.25,0,0,1-10.9-2.3c-16-2.19-32.09-4.3-48.13-6.22l-2.09-.25c.38-1.7.7-2.73.7-2.73s3.44-13.52,6.3-28.63a0,0,0,0,1,0,0c.63-3.28,1.23-6.62,1.75-9.93.42-2.65.8-5.27,1.12-7.79.18-1.39.33-2.75.46-4.08.07-.66.13-1.32.18-2s.11-1.42.16-2.11.07-1.3.1-1.93l0-.94c0-1.35,0-2.76-.05-4.21a124,124,0,0,0-3.4-21.41c-.28-1.2-.57-2.4-.87-3.57-.09-.38-.19-.75-.29-1.12-3.23-12.51-7-22.73-7-22.73a1.15,1.15,0,0,1,0-.17.57.57,0,0,0,0-.12,2.36,2.36,0,0,0,0-.25c0-.32,0-.81,0-1.4,0-.12,0-.25,0-.38a15.32,15.32,0,0,1,.54-3.1,11.23,11.23,0,0,1,.38-1.06,6.59,6.59,0,0,1,4.5-4.16h0c2.83-.73,7.11,0,13.57,3.83a23.35,23.35,0,0,1,3,2.06c.48.38,1,.78,1.4,1.21,7.4,6.89,11.34,18.26,13.44,28.64.08.37.15.74.22,1.11.25,1.28.46,2.53.65,3.76.34,2.16.61,4.24.81,6.17,0,.52.11,1,.16,1.53s.1,1,.13,1.48c.13,1.56.22,3,.28,4.22.17,3.24.14,5.23.14,5.23v.1s0,.15-.05.43a.19.19,0,0,0,0,.08c0,.12,0,.27,0,.44s0,.29,0,.46q-.06.63-.15,1.47c-.09.86-.19,1.87-.31,3a0,0,0,0,0,0,0c-.08.84-.18,1.75-.28,2.71-.22,2-.46,4.32-.72,6.76-.06.46-.11.92-.16,1.38-.23,2.09-.47,4.27-.72,6.47v0c-.27,2.5-.57,5-.86,7.47-.07.54-.14,1.08-.2,1.61-.74,6-1.48,11.45-2.08,14.84a14.1,14.1,0,0,0-.2,1.52,4.67,4.67,0,0,0,0,.52,10.25,10.25,0,0,0,0,1.36c.49,8.54,9.72,10,9.72,10l41.91-.83,6.22-.12,3.62-.07,32.67-.65h0l3-.06,16.25-.32a11.62,11.62,0,0,1,3.27.39A51.92,51.92,0,0,1,826.39,678a16.69,16.69,0,0,1,3.67,3.2,1.07,1.07,0,0,1,.14.16,17.3,17.3,0,0,1,3.93,9.36c0,.23,0,.46,0,.69C834.21,691.89,834.21,692.43,834.2,693Z" />
  <path
     id="path1516"
     opacity="0.1"
     transform="translate(-17.96 -172.03)"
     d="M756.54,695.27h0Z" />
  <path
     id="path1518"
     opacity="0.1"
     transform="translate(-17.96 -172.03)"
     d="M834.2,693c0,.28,0,.57-.05.85s0,.5-.08.75a17.5,17.5,0,0,1-1.5,5.09c-25.15-2.83-50.36-6.23-75.6-9.72l-3.57-.5-6.41-.89-5.4-.75h0a130.08,130.08,0,0,1-17.64-1.65,91.25,91.25,0,0,1-10.9-2.3c-16-2.19-32.09-4.3-48.13-6.22l-2.09-.25h0c.38-1.76.72-2.83.72-2.83s2.81-11,5.48-24.33v0c.19-.92.37-1.84.55-2.77l.27-1.41a0,0,0,0,1,0,0c.62-3.27,1.22-6.63,1.75-9.93.42-2.65.8-5.27,1.12-7.79.18-1.39.33-2.75.46-4.08.07-.66.13-1.32.18-2s.11-1.42.16-2.11.07-1.3.1-1.93l0-.94c0-1.35,0-2.76-.05-4.21a123,123,0,0,0-3.37-21.41q-.42-1.82-.87-3.57c-.1-.38-.19-.75-.29-1.12-3.24-12.55-7-22.83-7-22.83a.32.32,0,0,0,0-.07.57.57,0,0,0,0-.12,2.36,2.36,0,0,0,0-.25c0-.32,0-.81,0-1.4,0-.12,0-.25,0-.38a15.35,15.35,0,0,1,.51-3.1c.11-.35.23-.71.37-1.06a6.61,6.61,0,0,1,4.74-4.31c2.83-.66,7.06.16,13.38,3.86a24.2,24.2,0,0,1,3.12,2.18h0c.47.39.92.78,1.36,1.2,7.34,6.93,11.25,18.28,13.33,28.63.08.37.15.75.22,1.12.25,1.27.46,2.53.65,3.75.34,2.16.6,4.23.8,6.15.05.53.11,1.05.15,1.55s.1,1,.13,1.48c.13,1.56.22,3,.28,4.22.17,3.24.14,5.23.14,5.23l0,.34c0,.06,0,.12,0,.19a.19.19,0,0,0,0,.08c0,.12,0,.27,0,.44s0,.29,0,.46q-.06.63-.15,1.47c-.09.86-.19,1.87-.31,3a0,0,0,0,0,0,0c-.1.83-.19,1.74-.29,2.71-.22,2-.46,4.32-.72,6.76-.06.46-.11.92-.16,1.38-.23,2.09-.48,4.29-.72,6.49v0c-.29,2.5-.58,5-.88,7.46-.07.54-.13,1.08-.2,1.61-.73,6-1.46,11.37-2.06,14.74a13.92,13.92,0,0,0-.2,1.63,4.67,4.67,0,0,0,0,.52,10.25,10.25,0,0,0,0,1.36c.57,8.44,9.72,9.85,9.72,9.85l41.91-.82,6.21-.13,3.63-.07,32.73-.64,3.06-.06,16.19-.32a10.94,10.94,0,0,1,3.27.39,51.33,51.33,0,0,1,14.31,6.15,16.48,16.48,0,0,1,3.72,3.26,1.07,1.07,0,0,1,.14.16,17.13,17.13,0,0,1,3.88,9.4c0,.23,0,.46,0,.69C834.21,691.89,834.21,692.43,834.2,693Z" />
  <path
     id="path1520"
     fill="#3a3768"
     transform="translate(-17.96 -172.03)"
     d="M756.54,695.27h0Z" />
  <polygon
     id="polygon1524"
     fill="#4c4c56"
     points="957.67 347.05 969.9 373.25 967.85 373.25 953.51 347.36 957.67 347.05" />
  <polygon
     id="polygon1526"
     opacity="0.1"
     points="957.67 347.05 969.9 373.25 967.85 373.25 953.51 347.36 957.67 347.05" />
  <polygon
     id="polygon1528"
     fill="#4c4c56"
     points="957.67 373.25 969.9 373.25 969.9 375.99 957.67 376.3 957.67 373.25" />
  <polygon
     id="polygon1530"
     opacity="0.1"
     points="957.67 373.25 969.9 373.25 969.9 375.99 957.67 376.3 957.67 373.25" />
  <path
     id="path1532"
     fill="#4c4c56"
     transform="translate(-17.96 -172.03)"
     d="M880.5,422.67v91.49a6.79,6.79,0,0,0,6.79,6.79h152.5a6.75,6.75,0,0,0,6.75-6.88l-1.73-91.57a6.75,6.75,0,0,0-6.75-6.62H887.29A6.79,6.79,0,0,0,880.5,422.67Z" />
  <path
     id="path1534"
     opacity="0.1"
     transform="translate(-17.96 -172.03)"
     d="M880.5,422.67v91.49a6.79,6.79,0,0,0,6.79,6.79h152.5a6.75,6.75,0,0,0,6.75-6.88l-1.73-91.57a6.75,6.75,0,0,0-6.75-6.62H887.29A6.79,6.79,0,0,0,880.5,422.67Z" />
  <path
     id="path1536"
     fill="#4c4c56"
     transform="translate(-17.96 -172.03)"
     d="M875,422.67v91.49a6.79,6.79,0,0,0,6.79,6.79h152.5a6.74,6.74,0,0,0,6.74-6.88l-1.73-91.57a6.75,6.75,0,0,0-6.74-6.62H881.83A6.79,6.79,0,0,0,875,422.67Z" />
  <path
     id="path1538"
     fill="#55198b"
     transform="translate(-17.96 -172.03)"
     d="M881,428.39v80.55a6.79,6.79,0,0,0,6.79,6.79H1029a6.75,6.75,0,0,0,6.75-6.75V428.34a6.75,6.75,0,0,0-6.75-6.74H887.79A6.79,6.79,0,0,0,881,428.39Z" />
  <polygon
     id="polygon1540"
     fill="#4c4c56"
     points="924.14 347.42 937.55 373.25 967.85 373.25 952.7 343.7 924.14 347.42" />
  <polygon
     id="polygon1542"
     fill="#4c4c56"
     points="913.46 373.25 911.22 375.99 957.67 375.99 957.67 373.25 913.46 373.25" />
  <path
     id="path1550"
     fill="#efb7b9"
     transform="translate(-17.96 -172.03)"
     d="M913.77,728H911.3a0,0,0,0,1,0,0h2.44Z" />
  <path
     id="path1554"
     opacity="0.05"
     transform="translate(-17.96 -172.03)"
     d="M913.77,728H911.3a0,0,0,0,1,0,0h2.44Z" />
  <path
     id="path1570"
     opacity="0.1"
     transform="translate(-17.96 -172.03)"
     d="M835.87,667.79s-3.52,6.14-5.22,6.63S835.87,667.79,835.87,667.79Z" />
  <path
     id="path1572"
     opacity="0.1"
     transform="translate(-17.96 -172.03)"
     d="M830.65,669.32s-2.79,4.86-5.22,4.37Z" />
  <path
     id="path1618"
     opacity="0.1"
     transform="translate(-17.96 -172.03)"
     d="M722.14,572.71s-4.13,3.88-7.53,4.91Z" />
  <path
     id="path1620"
     opacity="0.1"
     transform="translate(-17.96 -172.03)"
     d="M712.31,584.24s10.07-.37,11.28-2.43S712.31,584.24,712.31,584.24Z" />
  <path
     id="path1622"
     opacity="0.1"
     transform="translate(-17.96 -172.03)"
     d="M707.33,598.68c.61,0,12.74-1.7,13.23-3.28Z" />
  <path
     id="path1624"
     opacity="0.1"
     transform="translate(-17.96 -172.03)"
     d="M703.57,607.91c4.37-.13,11.77-4.86,11.77-4.86Z" />
  <path
     id="path1644"
     opacity="0.1"
     transform="translate(-17.96 -172.03)"
     d="M729.85,404c-.9,4.14-2.14,9.52-3.07,12.29a15,15,0,0,1-.24-1.75,2.47,2.47,0,0,0-1.13.47c0-2.91.35-7.24.65-10.48a2.52,2.52,0,0,1,2.62,1.37C729,405.26,729.43,404.62,729.85,404Z" />
</svg>
